PathFileType	4	(X/Y/Z)	57_1_29_p1_0-238_filt_butterworth.trc
DataRate	CameraRate	NumFrames	NumMarkers	Units	OrigDataRate	OrigDataStartFrame	OrigNumFrames
60.0	60.0	6	27	m	60.0	208	238
Frame#	Time	RHip			RKnee			RAnkle			RBigToe			RSmallToe			RHeel			LHip			LKnee			LAnkle			LBigToe			LSmallToe			LHeel			Neck			Head			Nose			RShoulder			RElbow			RWrist			RThumb			RIndex			RPinky			LShoulder			LElbow			LWrist			LThumb			LIndex			LPinky			
		X1	Y1	Z1	X2	Y2	Z2	X3	Y3	Z3	X4	Y4	Z4	X5	Y5	Z5	X6	Y6	Z6	X7	Y7	Z7	X8	Y8	Z8	X9	Y9	Z9	X10	Y10	Z10	X11	Y11	Z11	X12	Y12	Z12	X13	Y13	Z13	X14	Y14	Z14	X15	Y15	Z15	X16	Y16	Z16	X17	Y17	Z17	X18	Y18	Z18	X19	Y19	Z19	X20	Y20	Z20	X21	Y21	Z21	X22	Y22	Z22	X23	Y23	Z23	X24	Y24	Z24	X25	Y25	Z25	X26	Y26	Z26	X27	Y27	Z27	
208	3.466666666666667	0.2500901287137707	0.5670817501337111	0.9780072171826208	0.24409518213896553	0.6840820478806159	1.3646145595779402	0.24829036863682724	0.849621501860375	1.7573008594294	0.2323824880507335	0.6648039539095515	1.803898752579538	0.3074965177721905	0.709821293272771	1.803473378051837	0.23549878031619995	0.9644413674592933	1.8132897033400313	0.03662627565977641	0.588156869343703	0.9924179672463376	0.0419853852284098	0.7155994357548445	1.3771437331209277	0.07189456271946236	0.886680516107242	1.7704661525418681	0.08179302975428834	0.6589595891218794	1.7975037601757613	0.027799230085689366	0.7488826598497759	1.8226800675819845	0.09284989562263006	0.9345704385371478	1.8215100397917552	0.12783075768957497	0.4029808432004882	0.4453631647493765	0.12310659327518252	0.27545083531540815	0.22427986623559568	0.11444701429276806	0.23954335612753708	0.37231630508400004	0.27999964494774543	0.3913457755073946	0.5248572653583561	0.3310088225537886	0.44845468112973497	0.7826510338594221	0.19673934923369002	0.46294066088230096	0.9958775404170864	0.13869838336474272	0.43321810517425857	1.0857429031248025	0.1371664242789801	0.44889956272484965	1.0968185217418742	0.143717435552046	0.4525399645093098	1.0945453090948165	-0.03023591047524341	0.3880635702627119	0.5378645097292754	-0.03644117985196437	0.44929890675794454	0.800296136108651	0.06946219521702471	0.4207742967260325	0.9938773976068755	0.14991557383518114	0.42002583227750556	1.0551552270858342	0.15524268737265887	0.4279315865446029	1.088140677347392	0.12198188477855122	0.434987485784585	1.0967102786293355
209	3.4833333333333334	0.25029207842054324	0.56693790381992	0.9804617325708651	0.24370177905334972	0.6839409227348048	1.3659834715912367	0.2482705567045261	0.849635391729648	1.75729529160277	0.2323374421628684	0.6645517841195449	1.8038803864971562	0.307508313182818	0.7088994978942104	1.8022154953456555	0.23548548246396547	0.9643772419771682	1.8128690350087504	0.03628884959557867	0.5880367920780498	0.9925996443324333	0.041963758289598155	0.7153075478204384	1.3770455645565776	0.07138856554297165	0.8869450896723126	1.770490624725455	0.08178331560998853	0.6588686253167115	1.797472575673836	0.027654766338469833	0.7489346430476378	1.8215157652531773	0.09283492842805044	0.9343032516396108	1.821509678367582	0.12782087519134122	0.4030212147057516	0.4453297924263002	0.12407615422685496	0.279175021373938	0.22291174078871803	0.11435203529184976	0.2391315588055174	0.37061017267174823	0.27998961377652226	0.3914275881060356	0.5249122586798993	0.33109666227141477	0.4483909185580433	0.7819687228553845	0.19775252590539977	0.4661558393902739	0.9967945023755472	0.13807413061203477	0.43405586911399896	1.0820752733118737	0.13745747607055578	0.44563035217751135	1.0953972701561268	0.14440256795888942	0.4522105728371116	1.0926341548324365	-0.03020203834792815	0.38810361715484043	0.5381874157943991	-0.03649251832915223	0.44937182035052864	0.8003134236356493	0.06967643572705985	0.4220526166793656	0.991623689434871	0.1485375431674056	0.41828323952608765	1.0510763928096032	0.1547711058602866	0.42811705973336467	1.0863674011385362	0.12224808550317882	0.4349897439354161	1.0946624831045333
210	3.5	0.2503884449574513	0.5667602426207368	0.9819779908001787	0.24369008325219152	0.6840343243491536	1.3671145890572618	0.2482672002386032	0.8496457057157459	1.757295956605343	0.23230531736161655	0.6645113599011045	1.8038493473413566	0.30770404408541063	0.7079386658558993	1.800562711387604	0.2354608992469846	0.9642772874781139	1.8118152091963844	0.036382002193111704	0.5875526288560882	0.9927021670313974	0.041949373474100396	0.7153010397813434	1.3769783284973114	0.07128598332491715	0.8873269133240115	1.7705681085864207	0.08177798104773674	0.6587016251559892	1.7974165356225984	0.027682928264287913	0.7485224985542374	1.8208167331485339	0.09280489954455984	0.9341310547359263	1.8215009794684376	0.1278109222469741	0.4030705929356571	0.44525806857503375	0.12474537263115833	0.28192736805411933	0.22118720692228258	0.11423579174287261	0.23862881755054594	0.3689158692585974	0.2799895154703725	0.3915450264509345	0.5249309420971563	0.33107711665960415	0.44798943413560066	0.7813162693019953	0.1980422838964555	0.4672156417872276	0.9979954575475176	0.13613328089970636	0.4339382466547999	1.078707107692053	0.1364960160851492	0.44109545772196973	1.093427673981922	0.14407627042253632	0.4521962873604326	1.0908755300975845	-0.03020791079284328	0.38809328028879436	0.5377856499010821	-0.03655590360768278	0.4494242239491216	0.8003207548743404	0.06854448854244491	0.42189019171369674	0.9891789959932585	0.14563458081489514	0.41551388091680563	1.0469390987317984	0.15284065102157746	0.427357124558706	1.0850203355460653	0.12196753126950767	0.435066277722729	1.0920178076369993
211	3.5166666666666666	0.2504074193070773	0.56664536956926	0.9824280757489572	0.24378471140633617	0.6842602331239486	1.3676968051185054	0.2482759239426229	0.8496395702292456	1.7572984997574255	0.23230262879677702	0.6645158260038596	1.8038102741782407	0.3079799364548276	0.707396281938763	1.7992905316316978	0.23542424880595786	0.9642155134977556	1.810830275545284	0.03652126254025461	0.5872663191622188	0.99273108958559	0.04191862176236677	0.7153172964115857	1.3768772431201788	0.07191388387484876	0.8879124129736009	1.7709698405846277	0.0817824520185575	0.6585493543550651	1.7973674007457785	0.027684503075657826	0.7483371100816856	1.8206835929813778	0.09276257684064863	0.9340602645187019	1.8214866820429827	0.12780351894218828	0.40311430025249023	0.4451712524720005	0.12492494003919441	0.28293414294157804	0.21957313431022882	0.11413758756893923	0.23826770684006268	0.36782258000613793	0.27999969525242063	0.39169093467717603	0.5249243547801971	0.3310534948000654	0.4474478065360715	0.7808508705210332	0.197969982564053	0.4673590684330782	0.9988954945712113	0.13429025012574305	0.43392314843716984	1.0768126220112615	0.13541531835226694	0.4374133945161995	1.0913859080597856	0.14324922534401818	0.45225979440474595	1.0889923755381106	-0.030270440410373498	0.3880154146940331	0.536732868719211	-0.03661791366273835	0.4494643448454586	0.8002809294093517	0.06691206536369676	0.4212138013798562	0.9876050287233095	0.14246342521902056	0.4130916796264613	1.0443457473223743	0.15002078237659616	0.42593172845498334	1.083783391720258	0.12166541295953225	0.4350060572353813	1.0893968774218659
212	3.533333333333333	0.25037568548172096	0.566592230435488	0.9823622282565536	0.24385034819051205	0.6843751661886772	1.3678309622767528	0.24828649037922984	0.8496168380697292	1.7572947732012143	0.23237495625458487	0.664418977437458	1.803760928503884	0.3081067427314472	0.707280173410306	1.7988623307014218	0.23540125352933736	0.9642881398752268	1.8103766237140317	0.036547981719368926	0.5872330113608621	0.9927112783914638	0.04191053217868933	0.71525594072851	1.3768671079885146	0.07277295930633326	0.8886625592218619	1.7717879569667334	0.08179641151323641	0.6584621480210663	1.7973405108360536	0.02761503721632153	0.7484889581088527	1.820814440901991	0.09272358620627444	0.9340086643918183	1.8214734800315981	0.12780106406660074	0.40313891563394844	0.4451083404291448	0.12483000286564407	0.2828814534157807	0.21852431642899733	0.11408511688414309	0.2381469190271221	0.36747130436801934	0.28001664761535827	0.391846424666915	0.5249210132961348	0.33076069754368564	0.4475368118124551	0.7807733780609355	0.19783664623005665	0.4675000473239441	0.9992443406800158	0.13335335437323725	0.434289892970144	1.0765734687373274	0.1347426427495455	0.43606651503576643	1.0898464270906325	0.14255612857025604	0.45228325598988667	1.0872622075275182	-0.03036651455598679	0.38790336474771075	0.5354179473423462	-0.03666095264048518	0.44950710410967815	0.800186326300846	0.06568923131098843	0.42043516456650953	0.9870217395609753	0.14009025246042725	0.4119365803116763	1.0442450000459125	0.14740165313269138	0.4244213823887496	1.0828532067028822	0.12147973880950053	0.4350017844489231	1.0879956897951721
213	3.55	0.2502836407746072	0.5665648295006543	0.9822610957306303	0.24388848237225808	0.6841498766392238	1.3676164923670129	0.24829023170825126	0.849591586814258	1.7572881932220255	0.2325673953270814	0.6642611468136234	1.8037614791211203	0.30774326780209793	0.7073580596596911	1.7993783461105195	0.23539381499528125	0.964501540685577	1.8103183297905656	0.03648991702044263	0.5873214707892395	0.9926627191983738	0.042010559290032334	0.715229284034533	1.3773244366513178	0.07321113460944383	0.8892868191576244	1.7727523399343932	0.08181401959564433	0.658408071872338	1.7973208977394666	0.02763620768987461	0.7484038281504195	1.820852476147591	0.09271406818485503	0.9339399573503147	1.8214605760666938	0.12780419411265737	0.4031391321778837	0.4450845393627869	0.12471481782567319	0.28264777272965197	0.21821991485906733	0.11407475125461794	0.2381334986173103	0.3674629792496637	0.28004267317165255	0.39197150801310193	0.5249253584710404	0.32994820818553694	0.4493960532081243	0.7814972986421435	0.19776368253566518	0.4678145710305986	0.9992662369554272	0.13315263462817511	0.4347599021126347	1.0773558860859085	0.13415549645185537	0.43740286400830075	1.0894004646936817	0.14223218224570586	0.4522754510592025	1.086249095561595	-0.03045444642649453	0.3878073806357171	0.5344483705165228	-0.036674158862989865	0.4495501108874642	0.8000822477784817	0.06522582188796613	0.41980834044522597	0.9870211988387312	0.13909129359130712	0.4121641723033287	1.0462354554332811	0.14591101398431194	0.42336492748657806	1.0825937594488826	0.12139632354882593	0.4353881708773122	1.0886172552739715
